<svg width="16" height="16" viewBox="0 0 16 16" fill="none" xmlns="http://www.w3.org/2000/svg">
<g clip-path="url(#clip0_129_1047)">
<path d="M11.2968 0.0375584C11.4531 0.103183 11.5656 0.243808 11.5968 0.409433L12.2187 3.78131L15.5906 4.40006C15.7562 4.43131 15.8968 4.54381 15.9624 4.70006C16.0281 4.85631 16.0093 5.03443 15.9124 5.17506L13.9656 8.00006L15.9124 10.8219C16.0093 10.9626 16.0281 11.1407 15.9624 11.2969C15.8968 11.4532 15.7562 11.5657 15.5906 11.5969L12.2187 12.2188L11.5968 15.5907C11.5656 15.7563 11.4531 15.8969 11.2968 15.9626C11.1406 16.0282 10.9624 16.0094 10.8218 15.9126L7.99994 13.9657L5.17806 15.9126C5.03744 16.0094 4.85931 16.0282 4.70306 15.9626C4.54681 15.8969 4.43431 15.7563 4.40306 15.5907L3.78119 12.2188L0.409311 11.5969C0.243686 11.5657 0.103061 11.4532 0.0374363 11.2969C-0.0281887 11.1407 -0.00943869 10.9626 0.0874363 10.8219L2.03431 8.00006L0.0874363 5.17818C-0.00943869 5.03756 -0.0281887 4.85943 0.0374363 4.70318C0.103061 4.54693 0.243686 4.43443 0.409311 4.40318L3.78119 3.78131L4.40306 0.409433C4.43431 0.243808 4.54681 0.103183 4.70306 0.0375584C4.85931 -0.0280666 5.03744 -0.00931662 5.17806 0.0875584L7.99994 2.03443L10.8218 0.0875584C10.9624 -0.00931662 11.1406 -0.0280666 11.2968 0.0375584ZM4.99994 8.00006C4.99994 7.20441 5.31601 6.44135 5.87862 5.87874C6.44123 5.31613 7.20429 5.00006 7.99994 5.00006C8.79559 5.00006 9.55865 5.31613 10.1213 5.87874C10.6839 6.44135 10.9999 7.20441 10.9999 8.00006C10.9999 8.79571 10.6839 9.55877 10.1213 10.1214C9.55865 10.684 8.79559 11.0001 7.99994 11.0001C7.20429 11.0001 6.44123 10.684 5.87862 10.1214C5.31601 9.55877 4.99994 8.79571 4.99994 8.00006ZM11.9999 8.00006C11.9999 6.93919 11.5785 5.92178 10.8284 5.17163C10.0782 4.42149 9.0608 4.00006 7.99994 4.00006C6.93907 4.00006 5.92165 4.42149 5.17151 5.17163C4.42136 5.92178 3.99994 6.93919 3.99994 8.00006C3.99994 9.06092 4.42136 10.0783 5.17151 10.8285C5.92165 11.5786 6.93907 12.0001 7.99994 12.0001C9.0608 12.0001 10.0782 11.5786 10.8284 10.8285C11.5785 10.0783 11.9999 9.06092 11.9999 8.00006Z" fill="currentColor"/>
</g>
<defs>
<clipPath id="clip0_129_1047">
<path d="M0 0H16V16H0V0Z" fill="white"/>
</clipPath>
</defs>
</svg>