<svg width="16" height="16" viewBox="0 0 16 16" fill="none" xmlns="http://www.w3.org/2000/svg">
<path d="M10.6667 1.33331L9.13336 2.86665C8.76691 3.2405 8.56165 3.74314 8.56165 4.26665C8.56165 4.79015 8.76691 5.29279 9.13336 5.66665L10.3334 6.86665C10.7072 7.2331 11.2099 7.43836 11.7334 7.43836C12.2569 7.43836 12.7595 7.2331 13.1334 6.86665L14.6667 5.33331" stroke="currentColor" stroke-width="1.33333" stroke-linecap="round" stroke-linejoin="round"/>
<path d="M10 10L2.20003 2.20001C1.93395 2.46072 1.72257 2.77189 1.57826 3.11531C1.43395 3.45874 1.35962 3.8275 1.35962 4.20001C1.35962 4.57252 1.43395 4.94129 1.57826 5.28471C1.72257 5.62813 1.93395 5.93931 2.20003 6.20001L7.06669 11.0667C7.53336 11.5333 8.40003 11.5333 8.93336 11.0667L10 10ZM10 10L14.6667 14.6667" stroke="currentColor" stroke-width="1.33333" stroke-linecap="round" stroke-linejoin="round"/>
<path d="M1.40002 14.5333L5.66669 10.3333" stroke="currentColor" stroke-width="1.33333" stroke-linecap="round" stroke-linejoin="round"/>
<path d="M12.6667 3.33331L8 7.99998" stroke="currentColor" stroke-width="1.33333" stroke-linecap="round" stroke-linejoin="round"/>
</svg>