<svg width="40" height="40" viewBox="0 0 40 40" fill="none" xmlns="http://www.w3.org/2000/svg">
<path d="M26.6667 3.33325L22.8333 7.16659C21.9172 8.10123 21.4041 9.35782 21.4041 10.6666C21.4041 11.9753 21.9172 13.2319 22.8333 14.1666L25.8333 17.1666C26.768 18.0827 28.0246 18.5959 29.3333 18.5959C30.6421 18.5959 31.8987 18.0827 32.8333 17.1666L36.6667 13.3333" stroke="#4CAF50" stroke-width="2" stroke-linecap="round" stroke-linejoin="round"/>
<path d="M25 25L5.50001 5.5C4.83481 6.15176 4.30635 6.9297 3.94558 7.78825C3.58481 8.64681 3.39899 9.56872 3.39899 10.5C3.39899 11.4313 3.58481 12.3532 3.94558 13.2117C4.30635 14.0703 4.83481 14.8482 5.50001 15.5L17.6667 27.6667C18.8333 28.8333 21 28.8333 22.3333 27.6667L25 25ZM25 25L36.6667 36.6667" stroke="#4CAF50" stroke-width="2" stroke-linecap="round" stroke-linejoin="round"/>
<path d="M3.5 36.3333L14.1667 25.8333" stroke="#4CAF50" stroke-width="2" stroke-linecap="round" stroke-linejoin="round"/>
<path d="M31.6667 8.33325L20 19.9999" stroke="#4CAF50" stroke-width="2" stroke-linecap="round" stroke-linejoin="round"/>
</svg>
