<svg width="16" height="16" viewBox="0 0 24 24" fill="none" xmlns="http://www.w3.org/2000/svg">
  <path d="M12.9999 2C10.2385 2 7.99991 4.23858 7.99991 7C7.99991 7.55228 8.44762 8 8.99991 8C9.55219 8 9.99991 7.55228 9.99991 7C9.99991 5.34315 11.3431 4 12.9999 4H16.9999C18.6568 4 19.9999 5.34315 19.9999 7V17C19.9999 18.6569 18.6568 20 16.9999 20H12.9999C11.3431 20 9.99991 18.6569 9.99991 17C9.99991 16.4477 9.55219 16 8.99991 16C8.44762 16 7.99991 16.4477 7.99991 17C7.99991 19.7614 10.2385 22 12.9999 22H16.9999C19.7613 22 21.9999 19.7614 21.9999 17V7C21.9999 4.23858 19.7613 2 16.9999 2H12.9999Z" fill="currentColor"/>
  <path d="M13.9999 11C14.5522 11 14.9999 11.4477 14.9999 12C14.9999 12.5523 14.5522 13 13.9999 13V11Z" fill="currentColor"/>
  <path d="M5.71783 11C5.80685 10.8902 5.89214 10.7837 5.97282 10.682C6.21831 10.3723 6.42615 10.1004 6.57291 9.90549C6.64636 9.80795 6.70468 9.72946 6.74495 9.67492L6.79152 9.61162L6.804 9.59454L6.80842 9.58848C7.13304 9.14167 7.0345 8.51561 6.58769 8.19098C6.14091 7.86637 5.51558 7.9654 5.19094 8.41215L2.7928 11.2929L2.08569 12L2.7928 12.7071C3.33759 13.2519 3.93443 13.9663 4.40567 14.5606C4.63874 14.8546 4.83623 15.113 4.97516 15.2975C5.51509 16.0339 6.14091 16.1336 6.58769 15.809C7.0345 15.4844 7.13355 14.859 6.80892 14.4122L5.71783 13H13.9999V11H5.71783Z" fill="currentColor"/>
</svg>