<svg width="36" height="36" viewBox="0 0 36 36" fill="none" xmlns="http://www.w3.org/2000/svg">
<rect width="36" height="36" rx="8" fill="#4CAF50"/>
<path d="M23.458 27C23.7232 27 23.9776 26.8947 24.1651 26.7071C24.3526 26.5196 24.458 26.2652 24.458 26V20.65C24.458 20.193 24.774 19.806 25.185 19.609C26.036 19.2031 26.7162 18.5096 27.1056 17.6509C27.495 16.7923 27.5686 15.8236 27.3134 14.916C27.0582 14.0083 26.4906 13.22 25.7107 12.6902C24.9308 12.1603 23.9888 11.923 23.051 12.02C22.6648 11.1222 22.0239 10.3573 21.2076 9.81987C20.3913 9.28241 19.4353 8.99597 18.458 8.99597C17.4806 8.99597 16.5247 9.28241 15.7084 9.81987C14.8921 10.3573 14.2512 11.1222 13.865 12.02C12.9276 11.9237 11.9862 12.1613 11.2069 12.6912C10.4276 13.221 9.86041 14.009 9.60528 14.9161C9.35016 15.8233 9.42351 16.7914 9.8124 17.6498C10.2013 18.5082 10.8808 19.2017 11.731 19.608C12.142 19.806 12.458 20.193 12.458 20.649V26C12.458 26.2652 12.5634 26.5196 12.7509 26.7071C12.9384 26.8947 13.1928 27 13.458 27H23.458Z" stroke="white" stroke-width="2.33333" stroke-linecap="round" stroke-linejoin="round"/>
<path d="M12.458 23H24.458" stroke="white" stroke-width="2.33333" stroke-linecap="round" stroke-linejoin="round"/>
</svg>
