<svg width="20" height="16" viewBox="0 0 20 16" fill="none" xmlns="http://www.w3.org/2000/svg">
<g clip-path="url(#clip0_129_1053)">
<path d="M9.19378 0.0375314C9.35316 0.103156 9.46566 0.246906 9.49378 0.415656L9.93441 3.06253L12.5813 3.50316C12.75 3.53128 12.8938 3.64378 12.9594 3.80316C13.025 3.96253 13.0063 4.14378 12.9094 4.28441L11.7063 6.00316C11.6375 6.00003 11.5688 5.99691 11.4969 5.99691C10.7688 5.99691 10.0875 6.19066 9.49691 6.53128V6.49691C9.49691 4.84066 8.15316 3.49691 6.49691 3.49691C4.84066 3.49691 3.49691 4.84066 3.49691 6.49691C3.49691 8.15316 4.84066 9.49691 6.49691 9.49691C6.75003 9.49691 6.99378 9.46566 7.22816 9.40628C6.08441 9.97191 5.25003 11.0657 5.04691 12.3719L4.28441 12.9032C4.14378 13.0032 3.96253 13.0219 3.80316 12.9532C3.64378 12.8844 3.53128 12.7438 3.50316 12.575L3.06566 9.93441L0.418781 9.49378C0.250031 9.46566 0.106281 9.35316 0.0406564 9.19378C-0.0249686 9.03441 -0.00621858 8.85316 0.0906564 8.71253L1.64066 6.50003L0.0906564 4.28753C-0.00934359 4.14691 -0.0280936 3.96566 0.0406564 3.80628C0.109406 3.64691 0.250031 3.53441 0.418781 3.50628L3.06566 3.06566L3.50628 0.418781C3.53441 0.250031 3.64691 0.106281 3.80628 0.0406564C3.96566 -0.0249686 4.14691 -0.00621858 4.28753 0.0906564L6.50003 1.64066L8.71253 0.0906564C8.85316 -0.00934359 9.03441 -0.0280936 9.19378 0.0406564V0.0375314ZM4.50003 6.50003C4.50003 5.9696 4.71074 5.46089 5.08582 5.08582C5.46089 4.71074 5.9696 4.50003 6.50003 4.50003C7.03046 4.50003 7.53917 4.71074 7.91425 5.08582C8.28932 5.46089 8.50003 5.9696 8.50003 6.50003C8.50003 7.03046 8.28932 7.53917 7.91425 7.91425C7.53917 8.28932 7.03046 8.50003 6.50003 8.50003C5.9696 8.50003 5.46089 8.28932 5.08582 7.91425C4.71074 7.53917 4.50003 7.03046 4.50003 6.50003ZM19.9969 13.4969C19.9969 14.8782 18.8782 15.9969 17.4969 15.9969H9.00003C7.34378 15.9969 6.00003 14.6532 6.00003 12.9969C6.00003 11.5094 7.08128 10.2782 8.50003 10.0407V10C8.50003 8.34378 9.84378 7.00003 11.5 7.00003C12.5907 7.00003 13.5438 7.58128 14.0688 8.45003C14.475 8.16566 14.9688 8.00003 15.5 8.00003C16.8813 8.00003 18 9.11878 18 10.5C18 10.6844 17.9813 10.8657 17.9407 11.0375C19.1094 11.2469 19.9969 12.2688 19.9969 13.4969Z" fill="currentColor"/>
</g>
<defs>
<clipPath id="clip0_129_1053">
<path d="M0 0H20V16H0V0Z" fill="white"/>
</clipPath>
</defs>
</svg>