<svg width="16" height="16" viewBox="0 0 16 16" fill="none" xmlns="http://www.w3.org/2000/svg">
<path d="M2 13.25V3.65C2 2.80992 2 2.38988 2.16349 2.06902C2.3073 1.78677 2.53677 1.5573 2.81901 1.41349C3.13988 1.25 3.55992 1.25 4.4 1.25H11.6C12.4401 1.25 12.8601 1.25 13.181 1.41349C13.4632 1.5573 13.6927 1.78677 13.8365 2.06902C14 2.38988 14 2.80992 14 3.65V11.75H3.5C2.67157 11.75 2 12.4216 2 13.25ZM2 13.25C2 14.0784 2.67157 14.75 3.5 14.75H14M5.75 4.25H10.25M5.75 7.25H10.25M13.25 11.75V14.75" stroke="currentColor" stroke-width="1.33" stroke-linecap="round" stroke-linejoin="round"/>
</svg>